<?xml version="1.0" standalone="no"?>
<!DOCTYPE svg PUBLIC "-//W3C//DTD SVG 20010904//EN"
 "http://www.w3.org/TR/2001/REC-SVG-20010904/DTD/svg10.dtd">
<svg version="1.0" xmlns="http://www.w3.org/2000/svg"
 width="500.000000pt" height="500.000000pt" viewBox="0 0 500.000000 500.000000"
 preserveAspectRatio="xMidYMid meet">
<metadata>
Created by potrace 1.14, written by Peter Selinger 2001-2017
</metadata>
<g transform="translate(0.000000,500.000000) scale(0.100000,-0.100000)"
fill="#000000" stroke="none">
<path d="M2468 4925 c-1 -2 -61 -6 -133 -9 -71 -3 -139 -8 -150 -10 -12 -2
-48 -7 -80 -11 -84 -9 -245 -40 -340 -65 -44 -11 -87 -22 -96 -24 -34 -8 -198
-66 -273 -96 -144 -57 -458 -225 -486 -259 -3 -3 -23 -18 -45 -32 -22 -15 -53
-38 -70 -53 -16 -15 -45 -36 -62 -49 -18 -12 -79 -69 -135 -127 -105 -107
-121 -125 -173 -195 -16 -22 -32 -42 -35 -45 -8 -7 -62 -91 -79 -120 -37 -67
-109 -210 -106 -210 2 0 -7 -24 -19 -52 -13 -29 -24 -56 -25 -60 -1 -4 -3 -13
-5 -20 -3 -7 -8 -26 -12 -43 -4 -16 -8 -34 -10 -40 -2 -5 -10 -53 -19 -105 -9
-52 -20 -105 -26 -118 -5 -13 -5 -21 -1 -18 5 3 9 -1 9 -9 0 -8 -4 -12 -8 -9
-5 2 -8 -227 -8 -511 0 -333 3 -514 9 -510 6 3 10 -3 10 -15 0 -33 38 -98 85
-145 79 -80 190 -121 336 -124 46 -1 87 -5 90 -9 3 -4 16 -34 29 -67 192 -495
599 -907 1106 -1119 123 -51 335 -109 449 -122 22 -3 47 -7 55 -10 26 -10 381
-13 455 -3 86 10 132 17 168 24 15 3 38 7 51 9 28 5 164 43 226 63 78 25 292
125 360 167 36 23 76 47 90 54 37 19 216 164 285 231 78 76 143 147 180 196
17 22 32 42 35 45 56 55 203 317 260 465 13 33 26 63 29 67 3 3 53 8 111 11
140 6 205 23 275 71 40 28 115 107 115 122 0 6 6 16 13 22 7 6 15 23 17 39 8
45 6 1072 -2 1133 -4 30 -12 79 -19 108 -6 30 -12 59 -13 65 -5 26 -28 101
-38 126 -6 14 -12 32 -14 39 -1 8 -6 21 -10 30 -4 9 -8 19 -8 22 -9 37 -164
313 -186 330 -3 3 -17 21 -30 40 -82 118 -397 420 -439 420 -6 0 -11 4 -11 8
0 27 -351 225 -504 283 -28 11 -60 24 -71 29 -67 30 -327 106 -445 129 -95 19
-102 20 -182 31 -43 6 -92 13 -110 16 -18 2 -98 7 -178 10 -80 3 -155 7 -167
9 -12 2 -23 2 -25 0z m347 -238 c11 -2 43 -8 70 -11 106 -15 121 -18 160 -27
22 -5 54 -12 70 -15 34 -6 225 -60 258 -74 12 -4 60 -23 107 -41 194 -75 455
-225 572 -329 9 -8 41 -35 70 -60 48 -40 174 -174 213 -225 109 -144 172 -256
228 -406 60 -159 77 -256 81 -461 l3 -117 -36 5 c-20 4 -43 8 -51 9 -8 2 -36
4 -61 4 l-45 1 -28 98 c-164 582 -584 1063 -1135 1298 -179 77 -393 134 -571
152 -128 14 -445 6 -540 -12 -8 -1 -33 -6 -55 -11 -520 -100 -991 -411 -1284
-847 -105 -157 -215 -390 -255 -539 -8 -30 -16 -61 -19 -69 -3 -8 -8 -27 -11
-41 -5 -24 -11 -27 -73 -33 -38 -3 -78 -8 -89 -10 -21 -4 -21 -2 -19 112 4
129 12 211 28 287 20 86 64 218 94 275 7 14 13 28 13 32 0 13 151 252 170 268
3 3 18 21 34 40 65 81 168 180 261 255 28 21 52 42 55 45 34 39 409 250 445
250 8 0 15 4 15 9 0 5 10 11 23 14 12 3 74 24 137 46 137 48 320 94 430 107
25 3 52 8 60 10 8 3 48 8 90 11 41 3 77 7 79 9 6 5 482 -3 506 -9z"/>
</g>
</svg>
